<svg width="1648" height="452" viewBox="0 0 1648 452" fill="none" xmlns="http://www.w3.org/2000/svg">
<path d="M732.497 426.83L730.616 425.908L730.616 425.908L732.497 426.83ZM718.204 443.232L719.327 445.001L719.327 445.001L718.204 443.232ZM676.706 443.232L675.583 445.001L675.583 445.001L676.706 443.232ZM662.413 426.83L664.294 425.908L664.294 425.908L662.413 426.83ZM718.204 359.96L719.327 358.191L719.327 358.191L718.204 359.96ZM732.497 376.362L730.616 377.283L730.616 377.283L732.497 376.362ZM723.057 381.364L721.165 382.263L721.169 382.271L723.057 381.364ZM712.416 368.882L711.294 370.651L711.299 370.654L712.416 368.882ZM682.449 368.882L681.333 367.109L681.327 367.112L682.449 368.882ZM671.808 381.364L669.919 380.456L669.916 380.464L671.808 381.364ZM671.808 421.828L669.916 422.727L669.92 422.736L671.808 421.828ZM682.449 434.31L681.327 436.079L681.333 436.083L682.449 434.31ZM712.416 434.31L711.299 432.538L711.294 432.541L712.416 434.31ZM723.057 421.828L721.169 420.921L721.165 420.929L723.057 421.828ZM756.274 447.738H754.179V449.833H756.274V447.738ZM756.274 355.454V353.359H754.179V355.454H756.274ZM808.37 360.996L807.309 362.803L807.315 362.806L808.37 360.996ZM822.841 376.812L820.957 377.731L820.959 377.734L822.841 376.812ZM822.796 426.244L824.678 427.166L824.679 427.162L822.796 426.244ZM808.013 442.196L809.052 444.015L809.059 444.012L808.013 442.196ZM767.316 437.825H765.221V439.92H767.316V437.825ZM813.579 382.175L811.665 383.026L811.667 383.03L813.579 382.175ZM802.804 369.738L801.713 371.527L801.721 371.532L802.804 369.738ZM767.316 365.367V363.272H765.221V365.367H767.316ZM918.127 426.83L916.245 425.908L916.245 425.908L918.127 426.83ZM903.834 443.232L904.957 445.001L904.957 445.001L903.834 443.232ZM862.335 443.232L861.212 445.001L861.212 445.001L862.335 443.232ZM848.042 426.83L849.924 425.908L849.924 425.908L848.042 426.83ZM903.834 359.96L904.957 358.191L904.957 358.191L903.834 359.96ZM918.127 376.362L916.245 377.283L916.245 377.283L918.127 376.362ZM908.687 381.364L906.795 382.263L906.799 382.271L908.687 381.364ZM898.045 368.882L896.923 370.651L896.929 370.654L898.045 368.882ZM868.079 368.882L866.962 367.109L866.957 367.112L868.079 368.882ZM857.437 381.364L855.549 380.456L855.545 380.464L857.437 381.364ZM857.437 421.828L855.545 422.727L855.549 422.736L857.437 421.828ZM868.079 434.31L866.957 436.079L866.962 436.083L868.079 434.31ZM898.045 434.31L896.929 432.538L896.923 432.541L898.045 434.31ZM908.687 421.828L906.799 420.921L906.795 420.929L908.687 421.828ZM1014.21 355.454H1016.31V353.359H1014.21V355.454ZM1014.21 447.738V449.833H1016.31V447.738H1014.21ZM1003.53 447.738L1001.8 448.923L1002.42 449.833H1003.53V447.738ZM953.837 375.28L955.564 374.095L954.94 373.185H953.837V375.28ZM952.946 375.28V373.185H950.851V375.28H952.946ZM952.946 447.738V449.833H955.041V447.738H952.946ZM941.904 447.738H939.809V449.833H941.904V447.738ZM941.904 355.454V353.359H939.809V355.454H941.904ZM952.59 355.454L954.317 354.268L953.693 353.359H952.59V355.454ZM1002.46 428.092L1000.73 429.278L1001.36 430.187H1002.46V428.092ZM1003.35 428.092V430.187H1005.44V428.092H1003.35ZM1003.35 355.454V353.359H1001.25V355.454H1003.35ZM1031.32 365.367H1029.23V367.462H1031.32V365.367ZM1031.32 355.454V353.359H1029.23V355.454H1031.32ZM1099.72 355.454H1101.81V353.359H1099.72V355.454ZM1099.72 365.367V367.462H1101.81V365.367H1099.72ZM1071.04 365.367V363.272H1068.95V365.367H1071.04ZM1071.04 447.738V449.833H1073.14V447.738H1071.04ZM1060 447.738H1057.9V449.833H1060V447.738ZM1060 365.367H1062.09V363.272H1060V365.367ZM1184.69 426.83L1182.81 425.908L1182.81 425.908L1184.69 426.83ZM1170.4 443.232L1171.52 445.001L1171.52 445.001L1170.4 443.232ZM1128.9 443.232L1127.78 445.001L1127.78 445.001L1128.9 443.232ZM1114.61 426.83L1116.49 425.908L1116.49 425.908L1114.61 426.83ZM1170.4 359.96L1171.52 358.191L1171.52 358.191L1170.4 359.96ZM1184.69 376.362L1182.81 377.283L1182.81 377.283L1184.69 376.362ZM1175.25 381.364L1173.36 382.263L1173.37 382.271L1175.25 381.364ZM1164.61 368.882L1163.49 370.651L1163.5 370.654L1164.61 368.882ZM1134.65 368.882L1133.53 367.109L1133.52 367.112L1134.65 368.882ZM1124 381.364L1122.12 380.456L1122.11 380.464L1124 381.364ZM1124 421.828L1122.11 422.727L1122.12 422.736L1124 421.828ZM1134.65 434.31L1133.52 436.079L1133.53 436.083L1134.65 434.31ZM1164.61 434.31L1163.5 432.538L1163.49 432.541L1164.61 434.31ZM1175.25 421.828L1173.37 420.921L1173.36 420.929L1175.25 421.828ZM1208.47 447.738H1206.38V449.833H1208.47V447.738ZM1208.47 355.454V353.359H1206.38V355.454H1208.47ZM1219.51 355.454H1221.61V353.359H1219.51V355.454ZM1219.51 437.825H1217.42V439.92H1219.51V437.825ZM1261.9 437.825H1264V435.73H1261.9V437.825ZM1261.9 447.738V449.833H1264V447.738H1261.9ZM1347.18 426.83L1345.3 425.908L1345.3 425.908L1347.18 426.83ZM1332.89 443.232L1334.01 445.001L1334.01 445.001L1332.89 443.232ZM1291.39 443.232L1290.27 445.001L1290.27 445.001L1291.39 443.232ZM1277.1 426.83L1278.98 425.908L1278.98 425.908L1277.1 426.83ZM1332.89 359.96L1334.01 358.191L1334.01 358.191L1332.89 359.96ZM1347.18 376.362L1345.3 377.283L1345.3 377.283L1347.18 376.362ZM1337.74 381.364L1335.85 382.263L1335.85 382.271L1337.74 381.364ZM1327.1 368.882L1325.98 370.651L1325.98 370.654L1327.1 368.882ZM1297.13 368.882L1296.02 367.109L1296.01 367.112L1297.13 368.882ZM1286.49 381.364L1284.6 380.456L1284.6 380.464L1286.49 381.364ZM1286.49 421.828L1284.6 422.727L1284.6 422.736L1286.49 421.828ZM1297.13 434.31L1296.01 436.079L1296.02 436.083L1297.13 434.31ZM1327.1 434.31L1325.98 432.538L1325.98 432.541L1327.1 434.31ZM1337.74 421.828L1335.85 420.921L1335.85 420.929L1337.74 421.828ZM1433.29 384.293L1431.3 384.936L1431.77 386.388H1433.29V384.293ZM1429.42 376.137L1427.66 377.274L1427.67 377.287L1427.68 377.299L1429.42 376.137ZM1423.77 369.918L1422.47 371.562L1422.48 371.57L1423.77 369.918ZM1416.37 365.998L1417.02 364.006L1417.02 364.006L1416.37 365.998ZM1382 381.364L1383.89 382.263L1383.89 382.263L1382 381.364ZM1382.05 421.828L1380.16 422.736L1380.16 422.736L1382.05 421.828ZM1421.81 435.166L1422.84 436.989L1422.84 436.987L1421.81 435.166ZM1431.16 425.523L1429.31 424.527L1429.31 424.532L1431.16 425.523ZM1434.54 410.788L1434.98 408.739L1432.45 408.2V410.788H1434.54ZM1437.93 411.509V413.604H1457.81L1438.36 409.46L1437.93 411.509ZM1410.5 411.509H1408.4V413.604H1410.5V411.509ZM1410.5 401.596V399.501H1408.4V401.596H1410.5ZM1445.23 401.596H1447.32V399.501H1445.23V401.596ZM1440.42 431.336L1438.6 430.298L1438.6 430.305L1440.42 431.336ZM1427.24 444.404L1428.25 446.24L1428.25 446.238L1427.24 444.404ZM1386.72 443.232L1385.6 445.003L1385.61 445.006L1386.72 443.232ZM1372.47 426.83L1370.58 427.732L1370.58 427.739L1372.47 426.83ZM1370.29 381.904L1368.3 381.24L1368.3 381.246L1370.29 381.904ZM1378.57 366.944L1380.16 368.315L1380.16 368.315L1378.57 366.944ZM1420.74 356.4L1420.04 358.375L1420.05 358.378L1420.06 358.381L1420.74 356.4ZM1431.91 362.573L1430.59 364.194L1430.6 364.201L1430.6 364.207L1431.91 362.573ZM1440.15 372.081L1438.35 373.152L1438.35 373.158L1440.15 372.081ZM1444.69 384.293V386.388H1447.21L1446.75 383.91L1444.69 384.293ZM1475.18 355.454H1477.28V353.359H1475.18V355.454ZM1475.18 447.738V449.833H1477.28V447.738H1475.18ZM1464.14 447.738H1462.05V449.833H1464.14V447.738ZM1464.14 355.454V353.359H1462.05V355.454H1464.14ZM1501.06 447.738V449.833H1502.55L1503.04 448.432L1501.06 447.738ZM1489.49 447.738L1487.52 447.024L1486.5 449.833H1489.49V447.738ZM1522.97 355.454V353.359H1521.5L1521 354.739L1522.97 355.454ZM1534.37 355.454L1536.34 354.739L1535.84 353.359H1534.37V355.454ZM1567.85 447.738V449.833H1570.84L1569.82 447.024L1567.85 447.738ZM1556.28 447.738L1554.3 448.432L1554.79 449.833H1556.28V447.738ZM1529.03 370.053L1531 369.36L1530.51 367.958H1529.03V370.053ZM1528.31 370.053V367.958H1526.83L1526.34 369.36L1528.31 370.053ZM1505.34 411.69V409.595H1503.24V411.69H1505.34ZM1552 411.69H1554.1V409.595H1552V411.69ZM1552 421.603V423.698H1554.1V421.603H1552ZM1505.34 421.603H1503.24V423.698H1505.34V421.603ZM163.016 3L163.021 0.905H163.016V3ZM269.274 39.6933L271.322 40.1321L271.597 38.8467L270.56 38.0396L269.274 39.6933ZM255.51 103.944L253.433 103.674L257.559 104.383L255.51 103.944ZM180.923 307.255L180.946 305.16L180.934 305.16H180.923V307.255ZM291.509 250.193L292.248 248.233L290.726 247.66L289.794 248.991L291.509 250.193ZM294.987 251.504L296.736 252.658L298.18 250.468L295.726 249.543L294.987 251.504ZM582.571 186.879L580.477 186.863L580.477 186.869L582.571 186.879ZM335.389 136.856L337.484 136.859V136.856H335.389ZM718.132 224.62H716.037V227.077L718.463 226.689L718.132 224.62ZM718.132 223.759L717.729 221.703L716.037 222.035V223.759H718.132ZM725.531 318.563V320.658L725.82 316.488L725.531 318.563ZM625.637 318.563L625.354 316.487L625.637 320.658V318.563ZM625.637 11.3122V9.21717L625.354 13.388L625.637 11.3122ZM718.132 11.3122L718.132 13.4072L718.138 13.4072L718.132 11.3122ZM745.88 218.48L745.274 216.475L727.28 221.918L746.03 220.569L745.88 218.48ZM984.405 211.665L982.441 212.393L982.444 212.402L982.448 212.411L984.405 211.665ZM963.613 155.502L965.577 154.775L965.071 153.407H963.613V155.502ZM884.252 155.502V153.407H882.762L882.273 154.815L884.252 155.502ZM902.455 216.945V219.04L902.821 214.882L902.455 216.945ZM826.129 216.945L825.658 214.903L807.695 219.04H826.129V216.945ZM886.398 139.252L884.449 138.484L884.445 138.494L886.398 139.252ZM939.305 4.98443V2.88943H937.879L937.356 4.21639L939.305 4.98443ZM941.488 4.98443L943.443 4.23183L942.926 2.88943H941.488V4.98443ZM999.168 154.828L1001.12 154.08L1001.12 154.075L999.168 154.828ZM885.547 151.758L883.596 150.993L882.476 153.853H885.547V151.758ZM961.874 151.758V153.853H964.895L963.836 151.023L961.874 151.758ZM924.58 52.1615L926.542 51.4269L924.624 46.3063L922.629 51.3971L924.58 52.1615ZM1191.74 243.94L1193.81 244.289L1189.75 243.285L1191.74 243.94ZM1179.16 318.563V320.658H1180.93L1181.23 318.911L1179.16 318.563ZM1014.37 318.563H1012.28V320.658H1014.37V318.563ZM1014.37 314.594L1012.46 313.744L1012.28 314.15V314.594H1014.37ZM1147.16 15.281L1149.07 16.1306L1150.38 13.186H1147.16V15.281ZM1017.81 85.9344L1015.75 85.5862L1019.8 86.5898L1017.81 85.9344ZM1030.39 11.3122V9.21717H1028.62L1028.33 10.9639L1030.39 11.3122ZM1186.97 11.3122H1189.06V9.21717H1186.97V11.3122ZM1186.97 15.281L1188.88 16.1347L1189.06 15.7273V15.281H1186.97ZM1053.41 314.594L1051.49 313.74L1050.18 316.689H1053.41V314.594ZM1383.95 243.94L1386.01 244.288L1381.96 243.276L1383.95 243.94ZM1371.4 318.563V320.658H1373.18L1373.47 318.91L1371.4 318.563ZM1206.36 318.563H1204.26V320.658H1206.36V318.563ZM1206.36 314.594L1204.44 313.745L1204.26 314.15V314.594H1206.36ZM1339.07 15.281L1340.98 16.1302L1342.29 13.186H1339.07V15.281ZM1209.94 85.9344L1207.88 85.5862L1211.93 86.5898L1209.94 85.9344ZM1222.52 11.3122V9.21717H1220.75L1220.46 10.9639L1222.52 11.3122ZM1379.1 11.3122H1381.19V9.21717H1379.1V11.3122ZM1379.1 15.281L1381.01 16.1349L1381.19 15.7274V15.281H1379.1ZM1245.5 314.594L1243.59 313.74L1242.27 316.689H1245.5V314.594ZM1458.46 318.563V320.658L1458.65 316.476L1458.46 318.563ZM1365.96 318.563L1365.78 316.476L1365.96 320.658V318.563ZM1430.56 241.32L1428.56 240.699L1428.56 240.705L1430.56 241.32ZM1503.86 5.1716V3.0766H1502.31L1501.85 4.5506L1503.86 5.1716ZM1506.04 5.1716L1508.04 4.54468L1507.58 3.0766H1506.04V5.1716ZM1589.73 272.022L1591.73 271.407L1591.73 271.395L1589.73 272.022ZM1647 318.563V320.658L1647.22 316.479L1647 318.563ZM1523.5 318.563L1523.31 316.477L1523.5 320.658V318.563ZM1552.14 269.888L1550.13 270.487L1550.13 270.5L1552.14 269.888ZM1536.93 218.967L1538.94 218.367L1538.49 216.872H1536.93V218.967ZM1441.11 218.967V216.872H1439.55L1439.1 218.368L1441.11 218.967ZM1433.3 245.176L1435.3 245.797L1435.3 245.786L1435.31 245.774L1433.3 245.176ZM1442.4 215.409L1440.4 214.792L1439.56 217.504H1442.4V215.409ZM1535.64 215.409V217.504H1538.45L1537.64 214.808L1535.64 215.409ZM1489.69 62.1586L1491.69 61.5569L1489.71 54.9598L1487.68 61.541L1489.69 62.1586ZM735.612 401.596C735.612 411.082 733.919 419.165 730.616 425.908L734.378 427.752C738.021 420.316 739.802 411.576 739.802 401.596H735.612ZM730.616 425.908C727.295 432.687 722.778 437.846 717.081 441.464L719.327 445.001C725.741 440.928 730.753 435.152 734.378 427.752L730.616 425.908ZM717.081 441.464C711.389 445.078 704.869 446.905 697.455 446.905V451.095C705.595 451.095 712.907 449.077 719.327 445.001L717.081 441.464ZM697.455 446.905C690.04 446.905 683.52 445.078 677.829 441.464L675.583 445.001C682.002 449.077 689.315 451.095 697.455 451.095V446.905ZM677.829 441.464C672.131 437.846 667.615 432.687 664.294 425.908L660.531 427.752C664.157 435.152 669.169 440.928 675.583 445.001L677.829 441.464ZM664.294 425.908C660.99 419.165 659.298 411.082 659.298 401.596H655.108C655.108 411.576 656.889 420.316 660.531 427.752L664.294 425.908ZM659.298 401.596C659.298 392.109 660.99 384.027 664.294 377.283L660.531 375.44C656.889 382.876 655.108 391.616 655.108 401.596H659.298ZM664.294 377.283C667.615 370.505 672.131 365.346 677.829 361.728L675.583 358.191C669.169 362.264 664.157 368.04 660.531 375.44L664.294 377.283ZM677.829 361.728C683.52 358.114 690.04 356.287 697.455 356.287V352.097C689.315 352.097 682.002 354.115 675.583 358.191L677.829 361.728ZM697.455 356.287C704.869 356.287 711.389 358.114 717.081 361.728L719.327 358.191C712.907 354.115 705.595 352.097 697.455 352.097V356.287ZM717.081 361.728C722.778 365.346 727.295 370.505 730.616 377.283L734.378 375.44C730.753 368.04 725.741 362.264 719.327 358.191L717.081 361.728ZM730.616 377.283C733.919 384.027 735.612 392.109 735.612 401.596H739.802C739.802 391.616 738.021 382.876 734.378 375.44L730.616 377.283ZM729.115 401.596C729.115 393.384 727.759 386.31 724.946 380.456L721.169 382.271C723.64 387.412 724.925 393.826 724.925 401.596H729.115ZM724.95 380.464C722.193 374.663 718.399 370.175 713.532 367.109L711.299 370.654C715.397 373.236 718.697 377.069 721.165 382.263L724.95 380.464ZM713.538 367.112C708.733 364.066 703.354 362.551 697.455 362.551V366.741C702.598 366.741 707.193 368.05 711.294 370.651L713.538 367.112ZM697.455 362.551C691.556 362.551 686.164 364.065 681.333 367.109L683.566 370.654C687.7 368.05 692.311 366.741 697.455 366.741V362.551ZM681.327 367.112C676.495 370.177 672.704 374.662 669.92 380.456L673.696 382.271C676.195 377.07 679.499 373.234 683.571 370.651L681.327 367.112ZM669.916 380.464C667.135 386.316 665.794 393.387 665.794 401.596H669.984C669.984 393.823 671.256 387.406 673.7 382.263L669.916 380.464ZM665.794 401.596C665.794 409.805 667.135 416.876 669.916 422.727L673.7 420.929C671.256 415.786 669.984 409.369 669.984 401.596H665.794ZM669.92 422.736C672.704 428.53 676.495 433.014 681.327 436.079L683.571 432.541C679.499 429.958 676.195 426.121 673.696 420.921L669.92 422.736ZM681.333 436.083C686.164 439.126 691.556 440.641 697.455 440.641V436.451C692.311 436.451 687.7 435.142 683.566 432.538L681.333 436.083ZM697.455 440.641C703.354 440.641 708.733 439.126 713.538 436.079L711.294 432.541C707.193 435.142 702.598 436.451 697.455 436.451V440.641ZM713.532 436.083C718.399 433.017 722.193 428.529 724.95 422.727L721.165 420.929C718.697 426.122 715.397 429.956 711.299 432.538L713.532 436.083ZM724.946 422.736C727.759 416.881 729.115 409.807 729.115 401.596H724.925C724.925 409.366 723.64 415.78 721.169 420.921L724.946 422.736ZM784.414 445.643H756.274V449.833H784.414V445.643ZM758.369 447.738V355.454H754.179V447.738H758.369ZM756.274 357.549H785.661V353.359H756.274V357.549ZM785.661 357.549C794.213 357.549 801.399 359.333 807.309 362.803L809.43 359.189C802.754 355.269 794.801 353.359 785.661 353.359V357.549ZM807.315 362.806C813.231 366.252 817.775 371.204 820.957 377.731L824.724 375.894C821.197 368.662 816.094 363.07 809.424 359.186L807.315 362.806ZM820.959 377.734C824.142 384.233 825.777 392.104 825.777 401.416H829.967C829.967 391.622 828.248 383.09 824.722 375.891L820.959 377.734ZM825.777 401.416C825.777 410.787 824.128 418.734 820.913 425.326L824.679 427.162C828.233 419.876 829.967 411.271 829.967 401.416H825.777ZM820.915 425.323C817.708 431.869 813.066 436.87 806.968 440.38L809.059 444.012C815.903 440.072 821.116 434.438 824.678 427.166L820.915 425.323ZM806.975 440.377C800.888 443.852 793.399 445.643 784.414 445.643V449.833C793.953 449.833 802.196 447.93 809.052 444.015L806.975 440.377ZM767.316 439.92H783.702V435.73H767.316V439.92ZM783.702 439.92C791.505 439.92 798.151 438.397 803.517 435.21L801.378 431.608C796.829 434.309 790.978 435.73 783.702 435.73V439.92ZM803.517 435.21C808.859 432.038 812.842 427.511 815.447 421.693L811.622 419.981C809.359 425.038 805.95 428.892 801.378 431.608L803.517 435.21ZM815.447 421.693C818.028 415.926 819.281 409.146 819.281 401.416H815.091C815.091 408.705 813.909 414.873 811.622 419.981L815.447 421.693ZM819.281 401.416C819.281 393.746 818.044 387.027 815.492 381.319L811.667 383.03C813.923 388.077 815.091 394.185 815.091 401.416H819.281ZM815.493 381.323C812.926 375.549 809.055 371.063 803.886 367.944L801.721 371.532C806.111 374.18 809.424 377.985 811.665 383.026L815.493 381.323ZM803.894 367.949C798.708 364.787 792.354 363.272 784.949 363.272V367.462C791.792 367.462 797.341 368.861 801.713 371.527L803.894 367.949ZM784.949 363.272H767.316V367.462H784.949V363.272ZM765.221 365.367V437.825H769.411V365.367H765.221ZM921.241 401.596C921.241 411.082 919.549 419.165 916.245 425.908L920.008 427.752C923.651 420.316 925.431 411.576 925.431 401.596H921.241ZM916.245 425.908C912.925 432.687 908.408 437.846 902.711 441.464L904.957 445.001C911.371 440.928 916.383 435.152 920.008 427.752L916.245 425.908ZM902.711 441.464C897.019 445.078 890.499 446.905 883.085 446.905V451.095C891.225 451.095 898.537 449.077 904.957 445.001L902.711 441.464ZM883.085 446.905C875.67 446.905 869.15 445.078 863.458 441.464L861.212 445.001C867.632 449.077 874.944 451.095 883.085 451.095V446.905ZM863.458 441.464C857.761 437.846 853.245 432.687 849.924 425.908L846.161 427.752C849.786 435.152 854.798 440.928 861.212 445.001L863.458 441.464ZM849.924 425.908C846.62 419.165 844.928 411.082 844.928 401.596H840.738C840.738 411.576 842.519 420.316 846.161 427.752L849.924 425.908ZM844.928 401.596C844.928 392.109 846.62 384.027 849.924 377.283L846.161 375.44C842.519 382.876 840.738 391.616 840.738 401.596H844.928ZM849.924 377.283C853.245 370.505 857.761 365.346 863.458 361.728L861.212 358.191C854.798 362.264 849.786 368.04 846.161 375.44L849.924 377.283ZM863.458 361.728C869.15 358.114 875.67 356.287 883.085 356.287V352.097C874.944 352.097 867.632 354.115 861.212 358.191L863.458 361.728ZM883.085 356.287C890.499 356.287 897.019 358.114 902.711 361.728L904.957 358.191C898.537 354.115 891.225 352.097 883.085 352.097V356.287ZM902.711 361.728C908.408 365.346 912.925 370.505 916.245 377.283L920.008 375.44C916.383 368.04 911.371 362.264 904.957 358.191L902.711 361.728ZM916.245 377.283C919.549 384.027 921.241 392.109 921.241 401.596H925.431C925.431 391.616 923.651 382.876 920.008 375.44L916.245 377.283ZM914.745 401.596C914.745 393.384 913.389 386.31 910.575 380.456L906.799 382.271C909.269 387.412 910.555 393.826 910.555 401.596H914.745ZM910.579 380.464C907.823 374.663 904.028 370.175 899.162 367.109L896.929 370.654C901.027 373.236 904.327 377.069 906.795 382.263L910.579 380.464ZM899.167 367.112C894.363 364.066 888.983 362.551 883.085 362.551V366.741C888.228 366.741 892.822 368.05 896.923 370.651L899.167 367.112ZM883.085 362.551C877.186 362.551 871.794 364.065 866.962 367.109L869.196 370.654C873.329 368.05 877.941 366.741 883.085 366.741V362.551ZM866.957 367.112C862.124 370.177 858.334 374.662 855.549 380.456L859.326 382.271C861.825 377.07 865.129 373.234 869.201 370.651L866.957 367.112ZM855.545 380.464C852.765 386.316 851.424 393.387 851.424 401.596H855.614C855.614 393.823 856.886 387.406 859.33 382.263L855.545 380.464ZM851.424 401.596C851.424 409.805 852.765 416.876 855.545 422.727L859.33 420.929C856.886 415.786 855.614 409.369 855.614 401.596H851.424ZM855.549 422.736C858.334 428.53 862.124 433.014 866.957 436.079L869.201 432.541C865.129 429.958 861.825 426.121 859.326 420.921L855.549 422.736ZM866.962 436.083C871.794 439.126 877.186 440.641 883.085 440.641V436.451C877.941 436.451 873.329 435.142 869.196 432.538L866.962 436.083ZM883.085 440.641C888.983 440.641 894.363 439.126 899.167 436.079L896.923 432.541C892.822 435.142 888.228 436.451 883.085 436.451V440.641ZM899.162 436.083C904.028 433.017 907.823 428.529 910.579 422.727L906.795 420.929C904.327 426.122 901.027 429.956 896.929 432.538L899.162 436.083ZM910.575 422.736C913.389 416.881 914.745 409.807 914.745 401.596H910.555C910.555 409.366 909.269 415.78 906.799 420.921L910.575 422.736ZM1012.12 355.454V447.738H1016.31V355.454H1012.12ZM1014.21 445.643H1003.53V449.833H1014.21V445.643ZM1005.26 446.553L955.564 374.095L952.109 376.465L1001.8 448.923L1005.26 446.553ZM953.837 373.185H952.946V377.375H953.837V373.185ZM950.851 375.28V447.738H955.041V375.28H950.851ZM952.946 445.643H941.904V449.833H952.946V445.643ZM943.999 447.738V355.454H939.809V447.738H943.999ZM941.904 357.549H952.59V353.359H941.904V357.549ZM950.863 356.639L1000.73 429.278L1004.19 426.906L954.317 354.268L950.863 356.639ZM1002.46 430.187H1003.35V425.997H1002.46V430.187ZM1005.44 428.092V355.454H1001.25V428.092H1005.44ZM1003.35 357.549H1014.21V353.359H1003.35V357.549ZM1033.42 365.367V355.454H1029.23V365.367H1033.42ZM1031.32 357.549H1099.72V353.359H1031.32V357.549ZM1097.62 355.454V365.367H1101.81V355.454H1097.62ZM1099.72 363.272H1071.04V367.462H1099.72V363.272ZM1068.95 365.367V447.738H1073.14V365.367H1068.95ZM1071.04 445.643H1060V449.833H1071.04V445.643ZM1062.09 447.738V365.367H1057.9V447.738H1062.09ZM1060 363.272H1031.32V367.462H1060V363.272ZM1187.81 401.596C1187.81 411.082 1186.12 419.165 1182.81 425.908L1186.58 427.752C1190.22 420.316 1192 411.576 1192 401.596H1187.81ZM1182.81 425.908C1179.49 432.687 1174.98 437.846 1169.28 441.464L1171.52 445.001C1177.94 440.928 1182.95 435.152 1186.58 427.752L1182.81 425.908ZM1169.28 441.464C1163.59 445.078 1157.07 446.905 1149.65 446.905V451.095C1157.79 451.095 1165.1 449.077 1171.52 445.001L1169.28 441.464ZM1149.65 446.905C1142.24 446.905 1135.72 445.078 1130.03 441.464L1127.78 445.001C1134.2 449.077 1141.51 451.095 1149.65 451.095V446.905ZM1130.03 441.464C1124.33 437.846 1119.81 432.687 1116.49 425.908L1112.73 427.752C1116.35 435.152 1121.37 440.928 1127.78 445.001L1130.03 441.464ZM1116.49 425.908C1113.19 419.165 1111.49 411.082 1111.49 401.596H1107.3C1107.3 411.576 1109.09 420.316 1112.73 427.752L1116.49 425.908ZM1111.49 401.596C1111.49 392.109 1113.19 384.027 1116.49 377.283L1112.73 375.44C1109.09 382.876 1107.3 391.616 1107.3 401.596H1111.49ZM1116.49 377.283C1119.81 370.505 1124.33 365.346 1130.03 361.728L1127.78 358.191C1121.37 362.264 1116.35 368.04 1112.73 375.44L1116.49 377.283ZM1130.03 361.728C1135.72 358.114 1142.24 356.287 1149.65 356.287V352.097C1141.51 352.097 1134.2 354.115 1127.78 358.191L1130.03 361.728ZM1149.65 356.287C1157.07 356.287 1163.59 358.114 1169.28 361.728L1171.52 358.191C1165.1 354.115 1157.79 352.097 1149.65 352.097V356.287ZM1169.28 361.728C1174.98 365.346 1179.49 370.505 1182.81 377.283L1186.58 375.44C1182.95 368.04 1177.94 362.264 1171.52 358.191L1169.28 361.728ZM1182.81 377.283C1186.12 384.027 1187.81 392.109 1187.81 401.596H1192C1192 391.616 1190.22 382.876 1186.58 375.44L1182.81 377.283ZM1181.31 401.596C1181.31 393.384 1179.96 386.31 1177.14 380.456L1173.37 382.271C1175.84 387.412 1177.12 393.826 1177.12 401.596H1181.31ZM1177.15 380.464C1174.39 374.663 1170.6 370.175 1165.73 367.109L1163.5 370.654C1167.59 373.236 1170.89 377.069 1173.36 382.263L1177.15 380.464ZM1165.73 367.112C1160.93 364.066 1155.55 362.551 1149.65 362.551V366.741C1154.8 366.741 1159.39 368.05 1163.49 370.651L1165.73 367.112ZM1149.65 362.551C1143.75 362.551 1138.36 364.065 1133.53 367.109L1135.76 370.654C1139.9 368.05 1144.51 366.741 1149.65 366.741V362.551ZM1133.52 367.112C1128.69 370.177 1124.9 374.662 1122.12 380.456L1125.89 382.271C1128.39 377.07 1131.7 373.234 1135.77 370.651L1133.52 367.112ZM1122.11 380.464C1119.33 386.316 1117.99 393.387 1117.99 401.596H1122.18C1122.18 393.823 1123.45 387.406 1125.9 382.263L1122.11 380.464ZM1117.99 401.596C1117.99 409.804 1119.33 416.875 1122.11 422.727L1125.9 420.929C1123.45 415.786 1122.18 409.369 1122.18 401.596H1117.99ZM1122.12 422.736C1124.9 428.53 1128.69 433.014 1133.52 436.079L1135.77 432.541C1131.7 429.958 1128.39 426.121 1125.89 420.921L1122.12 422.736ZM1133.53 436.083C1138.36 439.126 1143.75 440.641 1149.65 440.641V436.451C1144.51 436.451 1139.9 435.142 1135.76 432.538L1133.53 436.083ZM1149.65 440.641C1155.55 440.641 1160.93 439.126 1165.73 436.079L1163.49 432.541C1159.39 435.142 1154.8 436.451 1149.65 436.451V440.641ZM1165.73 436.083C1170.6 433.017 1174.39 428.529 1177.15 422.727L1173.36 420.929C1170.89 426.122 1167.59 429.956 1163.5 432.538L1165.73 436.083ZM1177.14 422.736C1179.96 416.881 1181.31 409.807 1181.31 401.596H1177.12C1177.12 409.366 1175.84 415.78 1173.37 420.921L1177.14 422.736ZM1210.57 447.738V355.454H1206.38V447.738H1210.57ZM1208.47 357.549H1219.51V353.359H1208.47V357.549ZM1217.42 355.454V437.825H1221.61V355.454H1217.42ZM1219.51 439.92H1261.9V435.73H1219.51V439.92ZM1259.81 437.825V447.738H1264V437.825H1259.81ZM1261.9 445.643H1208.47V449.833H1261.9V445.643ZM1350.3 401.596C1350.3 411.082 1348.6 419.165 1345.3 425.908L1349.06 427.752C1352.7 420.316 1354.49 411.576 1354.49 401.596H1350.3ZM1345.3 425.908C1341.98 432.687 1337.46 437.846 1331.76 441.464L1334.01 445.001C1340.42 440.928 1345.44 435.152 1349.06 427.752L1345.3 425.908ZM1331.76 441.464C1326.07 445.078 1319.55 446.905 1312.14 446.905V451.095C1320.28 451.095 1327.59 449.077 1334.01 445.001L1331.76 441.464ZM1312.14 446.905C1304.72 446.905 1298.2 445.078 1292.51 441.464L1290.27 445.001C1296.69 449.077 1304 451.095 1312.14 451.095V446.905ZM1292.51 441.464C1286.82 437.846 1282.3 432.687 1278.98 425.908L1275.22 427.752C1278.84 435.152 1283.85 440.928 1290.27 445.001L1292.51 441.464ZM1278.98 425.908C1275.67 419.165 1273.98 411.082 1273.98 401.596H1269.79C1269.79 411.576 1271.57 420.316 1275.22 427.752L1278.98 425.908ZM1273.98 401.596C1273.98 392.109 1275.67 384.027 1278.98 377.283L1275.22 375.44C1271.57 382.876 1269.79 391.616 1269.79 401.596H1273.98ZM1278.98 377.283C1282.3 370.505 1286.82 365.346 1292.51 361.728L1290.27 358.191C1283.85 362.264 1278.84 368.04 1275.22 375.44L1278.98 377.283ZM1292.51 361.728C1298.2 358.114 1304.72 356.287 1312.14 356.287V352.097C1304 352.097 1296.69 354.115 1290.27 358.191L1292.51 361.728ZM1312.14 356.287C1319.55 356.287 1326.07 358.114 1331.76 361.728L1334.01 358.191C1327.59 354.115 1320.28 352.097 1312.14 352.097V356.287ZM1331.76 361.728C1337.46 365.346 1341.98 370.505 1345.3 377.283L1349.06 375.44C1345.44 368.04 1340.42 362.264 1334.01 358.191L1331.76 361.728ZM1345.3 377.283C1348.6 384.027 1350.3 392.109 1350.3 401.596H1354.49C1354.49 391.616 1352.7 382.876 1349.06 375.44L1345.3 377.283ZM1343.8 401.596C1343.8 393.384 1342.44 386.31 1339.63 380.456L1335.85 382.271C1338.32 387.412 1339.61 393.826 1339.61 401.596H1343.8ZM1339.63 380.464C1336.88 374.663 1333.08 370.175 1328.22 367.109L1325.98 370.654C1330.08 373.236 1333.38 377.069 1335.85 382.263L1339.63 380.464ZM1328.22 367.112C1323.42 364.066 1318.04 362.551 1312.14 362.551V366.741C1317.28 366.741 1321.88 368.05 1325.98 370.651L1328.22 367.112ZM1312.14 362.551C1306.24 362.551 1300.85 364.065 1296.02 367.109L1298.25 370.654C1302.38 368.05 1307 366.741 1312.14 366.741V362.551ZM1296.01 367.112C1291.18 370.177 1287.39 374.662 1284.6 380.456L1288.38 382.271C1290.88 377.07 1294.18 373.234 1298.26 370.651L1296.01 367.112ZM1284.6 380.464C1281.82 386.316 1280.48 393.387 1280.48 401.596H1284.67C1284.67 393.823 1285.94 387.406 1288.38 382.263L1284.6 380.464ZM1280.48 401.596C1280.48 409.804 1281.82 416.875 1284.6 422.727L1288.38 420.929C1285.94 415.786 1284.67 409.369 1284.67 401.596H1280.48ZM1284.6 422.736C1287.39 428.53 1291.18 433.014 1296.01 436.079L1298.26 432.541C1294.18 429.958 1290.88 426.121 1288.38 420.921L1284.6 422.736ZM1296.02 436.083C1300.85 439.126 1306.24 440.641 1312.14 440.641V436.451C1307 436.451 1302.38 435.142 1298.25 432.538L1296.02 436.083ZM1312.14 440.641C1318.04 440.641 1323.42 439.126 1328.22 436.079L1325.98 432.541C1321.88 435.142 1317.28 436.451 1312.14 436.451V440.641ZM1328.22 436.083C1333.08 433.017 1336.88 428.529 1339.63 422.727L1335.85 420.929C1333.38 426.122 1330.08 429.956 1325.98 432.538L1328.22 436.083ZM1339.63 422.736C1342.44 416.881 1343.8 409.807 1343.8 401.596H1339.61C1339.61 409.366 1338.32 415.78 1335.85 420.921L1339.63 422.736ZM1435.29 383.649C1434.26 380.45 1432.88 377.554 1431.16 374.974L1427.68 377.299C1429.16 379.526 1430.37 382.067 1431.3 384.936L1435.29 383.649ZM1431.18 374.999C1429.48 372.377 1427.44 370.128 1425.05 368.266L1422.48 371.57C1424.48 373.133 1426.21 375.029 1427.66 377.274L1431.18 374.999ZM1425.07 368.274C1422.69 366.401 1420.01 364.98 1417.02 364.006L1415.72 367.989C1418.26 368.818 1420.5 370.011 1422.47 371.562L1425.07 368.274ZM1417.02 364.006C1414.03 363.028 1410.78 362.551 1407.29 362.551V366.741C1410.39 366.741 1413.2 367.165 1415.72 367.989L1417.02 364.006ZM1407.29 362.551C1401.5 362.551 1396.2 364.07 1391.43 367.116L1393.68 370.647C1397.76 368.045 1402.28 366.741 1407.29 366.741V362.551ZM1391.43 367.116C1386.62 370.183 1382.86 374.67 1380.11 380.464L1383.89 382.263C1386.36 377.062 1389.64 373.228 1393.68 370.647L1391.43 367.116ZM1380.11 380.464C1377.33 386.316 1375.99 393.387 1375.99 401.596H1380.18C1380.18 393.823 1381.45 387.406 1383.89 382.263L1380.11 380.464ZM1375.99 401.596C1375.99 409.807 1377.34 416.881 1380.16 422.736L1383.93 420.921C1381.46 415.78 1380.18 409.366 1380.18 401.596H1375.99ZM1380.16 422.736C1382.94 428.537 1386.77 433.023 1391.66 436.086L1393.89 432.534C1389.76 429.95 1386.43 426.114 1383.93 420.921L1380.16 422.736ZM1391.66 436.086C1396.53 439.131 1402 440.641 1408 440.641V436.451C1402.73 436.451 1398.05 435.137 1393.89 432.534L1391.66 436.086ZM1408 440.641C1413.54 440.641 1418.5 439.445 1422.84 436.989L1420.77 433.343C1417.15 435.394 1412.92 436.451 1408 436.451V440.641ZM1422.84 436.987C1427.2 434.504 1430.59 431 1433 426.514L1429.31 424.532C1427.27 428.338 1424.43 431.262 1420.77 433.346L1422.84 436.987ZM1433 426.519C1435.45 421.984 1436.64 416.718 1436.64 410.788H1432.45C1432.45 416.154 1431.38 420.711 1429.31 424.527L1433 426.519ZM1434.1 412.837L1437.49 413.558L1438.36 409.46L1434.98 408.739L1434.1 412.837ZM1437.93 409.414H1410.5V413.604H1437.93V409.414ZM1412.59 411.509V401.596H1408.4V411.509H1412.59ZM1410.5 403.691H1445.23V399.501H1410.5V403.691ZM1443.13 401.596V411.509H1447.32V401.596H1443.13ZM1443.13 411.509C1443.13 418.81 1441.6 425.048 1438.6 430.298L1442.24 432.375C1445.65 426.389 1447.32 419.41 1447.32 411.509H1443.13ZM1438.6 430.305C1435.61 435.587 1431.5 439.664 1426.23 442.569L1428.25 446.238C1434.2 442.955 1438.88 438.32 1442.24 432.367L1438.6 430.305ZM1426.23 442.567C1421 445.44 1414.94 446.905 1408 446.905V451.095C1415.55 451.095 1422.32 449.496 1428.25 446.24L1426.23 442.567ZM1408 446.905C1400.28 446.905 1393.58 445.07 1387.84 441.459L1385.61 445.006C1392.09 449.085 1399.58 451.095 1408 451.095V446.905ZM1387.84 441.461C1382.12 437.845 1377.62 432.691 1374.36 425.921L1370.58 427.739C1374.15 435.148 1379.15 440.929 1385.6 445.003L1387.84 441.461ZM1374.36 425.928C1371.14 419.179 1369.49 411.09 1369.49 401.596H1365.3C1365.3 411.568 1367.03 420.302 1370.58 427.732L1374.36 425.928ZM1369.49 401.596C1369.49 394.479 1370.43 388.142 1372.28 382.563L1368.3 381.246C1366.29 387.322 1365.3 394.113 1365.3 401.596H1369.49ZM1372.28 382.569C1374.16 376.936 1376.8 372.198 1380.16 368.315L1376.99 365.573C1373.22 369.922 1370.34 375.157 1368.3 381.24L1372.28 382.569ZM1380.16 368.315C1383.52 364.425 1387.49 361.457 1392.08 359.391L1390.36 355.571C1385.21 357.892 1380.75 361.232 1376.99 365.573L1380.16 368.315ZM1392.08 359.391C1396.65 357.331 1401.71 356.287 1407.29 356.287V352.097C1401.18 352.097 1395.52 353.245 1390.36 355.571L1392.08 359.391ZM1407.29 356.287C1411.88 356.287 1416.13 356.989 1420.04 358.375L1421.44 354.425C1417.04 352.867 1412.32 352.097 1407.29 352.097V356.287ZM1420.06 358.381C1424.02 359.746 1427.52 361.685 1430.59 364.194L1433.24 360.952C1429.78 358.114 1425.83 355.938 1421.42 354.419L1420.06 358.381ZM1430.6 364.207C1433.7 366.691 1436.28 369.668 1438.35 373.152L1441.95 371.01C1439.63 367.104 1436.72 363.742 1433.23 360.939L1430.6 364.207ZM1438.35 373.158C1440.42 376.595 1441.85 380.428 1442.63 384.675L1446.75 383.91C1445.88 379.205 1444.28 374.897 1441.95 371.004L1438.35 373.158ZM1444.69 382.198H1433.29V386.388H1444.69V382.198ZM1473.09 355.454V447.738H1477.28V355.454H1473.09ZM1475.18 445.643H1464.14V449.833H1475.18V445.643ZM1466.24 447.738V355.454H1462.05V447.738H1466.24ZM1464.14 357.549H1475.18V353.359H1464.14V357.549ZM1501.06 445.643H1489.49V449.833H1501.06V445.643ZM1491.46 448.453L1524.94 356.168L1521 354.739L1487.52 447.024L1491.46 448.453ZM1522.97 357.549H1534.37V353.359H1522.97V357.549ZM1532.4 356.168L1565.88 448.453L1569.82 447.024L1536.34 354.739L1532.4 356.168ZM1567.85 445.643H1556.28V449.833H1567.85V445.643ZM1558.25 447.045L1531 369.36L1527.05 370.747L1554.3 448.432L1558.25 447.045ZM1529.03 367.958H1528.31V372.148H1529.03V367.958ZM1526.34 369.36L1499.09 447.045L1503.04 448.432L1530.29 370.747L1526.34 369.36ZM1505.34 413.785H1552V409.595H1505.34V413.785ZM1549.91 411.69V421.603H1554.1V411.69H1549.91ZM1552 419.508H1505.34V423.698H1552V419.508ZM1507.43 421.603V411.69H1503.24V421.603H1507.43ZM161.314 323.02C82.069 323.02 5.095 264.127 5.095 165.799H0.905C0.905 266.737 80.062 327.21 161.314 327.21V323.02ZM5.095 165.799C5.095 65.7092 81.2589 5.095 163.016 5.095V0.905C79.1702 0.905 0.905 63.1759 0.905 165.799H5.095ZM163.011 5.09499C200.984 5.18818 237.874 17.926 267.987 41.347L270.56 38.0396C239.717 14.0515 201.927 1.00048 163.021 0.905006L163.011 5.09499ZM267.225 39.2545L253.462 103.505L257.559 104.383L271.322 40.1321L267.225 39.2545ZM257.588 104.214C261.575 73.5003 251.595 49.2348 233.901 32.6872C216.263 16.192 191.108 7.49475 164.866 7.49475V11.6848C190.236 11.6848 214.306 20.0986 231.039 35.7475C247.716 51.3441 257.252 74.2558 253.433 103.674L257.588 104.214ZM164.866 7.49475C135.095 7.49475 103.869 18.5392 80.0791 42.176C56.2647 65.8375 40.0487 101.97 40.0487 151.87H44.2387C44.2387 102.923 60.1183 67.9152 83.0323 45.1483C105.971 22.3568 136.106 11.6848 164.866 11.6848V7.49475ZM40.0487 151.87C40.0487 204.366 57.5675 243.77 84.0288 270.054C110.469 296.318 145.708 309.35 180.923 309.35V305.16C146.729 305.16 112.579 292.507 86.9816 267.082C61.4053 241.677 44.2387 203.388 44.2387 151.87H40.0487ZM180.899 309.35C202.86 309.596 224.551 304.45 244.114 294.356L242.193 290.632C223.236 300.414 202.221 305.398 180.946 305.16L180.899 309.35ZM244.114 294.356C263.677 284.261 280.528 269.52 293.225 251.395L289.794 248.991C277.483 266.563 261.15 280.851 242.193 290.632L244.114 294.356ZM290.771 252.154L294.249 253.464L295.726 249.543L292.248 248.233L290.771 252.154ZM293.239 250.35C260.126 300.542 210.445 323.02 161.314 323.02V327.21C211.781 327.21 262.809 304.084 296.736 252.658L293.239 250.35ZM458.999 323.02C419.772 323.02 380.712 309.786 351.484 283.458C322.291 257.163 302.78 217.696 302.78 164.937H298.59C298.59 218.814 318.555 259.436 348.679 286.571C378.768 313.673 418.865 327.21 458.999 327.21V323.02ZM302.78 164.937C302.78 112.182 322.391 72.7151 351.635 46.4182C380.916 20.0883 419.977 6.85479 458.999 6.85479V2.66479C419.067 2.66479 378.971 16.2025 348.833 43.3026C318.659 70.4357 298.59 111.057 298.59 164.937H302.78ZM458.999 6.85479C498.024 6.85479 537.076 19.9786 566.345 46.251C595.577 72.4897 615.181 111.955 615.181 164.937H619.371C619.371 110.835 599.312 70.2117 569.144 43.1328C539.013 16.0875 498.926 2.66479 458.999 2.66479V6.85479ZM615.181 164.937C615.181 217.918 595.523 257.384 566.263 283.623C536.965 309.897 497.912 323.02 458.999 323.02V327.21C498.816 327.21 538.903 313.787 569.06 286.743C599.255 259.665 619.371 219.042 619.371 164.937H615.181ZM471.985 321.07C500.959 321.07 529.069 309.657 549.973 287.108C570.88 264.555 584.461 230.997 584.666 186.888L580.477 186.869C580.275 230.113 566.977 262.602 546.9 284.26C526.82 305.92 499.839 316.88 471.985 316.88V321.07ZM584.666 186.895C585.562 69.6172 511.06 8.80525 442.498 8.80525V12.9953C508.386 12.9953 581.357 71.549 580.477 186.863L584.666 186.895ZM442.498 8.80525C414.007 8.80525 386.661 19.3004 366.444 40.6491C346.224 62.0023 333.294 94.0423 333.294 136.856H337.484C337.484 94.9002 350.138 63.9625 369.487 43.5301C388.839 23.0934 415.048 12.9953 442.498 12.9953V8.80525ZM333.294 136.853C333.108 260.134 404.458 321.07 471.8 321.07V316.88C407.355 316.88 337.3 258.45 337.484 136.859L333.294 136.853ZM471.8 321.07H471.985V316.88H471.8V321.07ZM900.716 323.02C855.336 323.02 829.45 295.548 804.96 268.846C780.677 242.37 757.469 216.206 717.801 222.552L718.463 226.689C755.565 220.754 777.255 244.837 801.873 271.678C826.284 298.295 853.305 327.21 900.716 327.21V323.02ZM720.227 224.62V223.759H716.037V224.62H720.227ZM718.535 225.815C773.75 214.993 797.44 161.546 795.687 111.542C794.809 86.4765 787.561 61.9716 774.481 43.6731C761.369 25.3298 742.347 13.186 718.132 13.186V17.376C740.756 17.376 758.597 28.657 771.073 46.1097C783.58 63.607 790.644 87.2692 791.5 111.688C793.216 160.653 770.066 211.445 717.729 221.703L718.535 225.815ZM718.132 13.186H717.281V17.376H718.132V13.186ZM717.281 13.186C708.372 13.186 701.295 14.2291 696.775 20.2801C694.578 23.221 693.125 27.1702 692.206 32.3202C691.286 37.4767 690.878 43.9842 690.878 52.1615H695.068C695.068 44.0889 695.474 37.8614 696.331 33.056C697.189 28.244 698.476 25.0043 700.132 22.7875C703.317 18.5233 708.393 17.376 717.281 17.376V13.186ZM690.878 52.1615V275.991H695.068V52.1615H690.878ZM690.878 275.991C690.878 294.15 694.257 304.834 700.604 311.247C706.916 317.625 715.755 319.317 725.242 320.638L725.82 316.488C716.216 315.15 708.776 313.548 703.582 308.299C698.423 303.086 695.068 293.814 695.068 275.991H690.878ZM725.531 316.468H625.637V320.658H725.531V316.468ZM625.92 320.639C635.607 319.318 644.449 317.628 650.706 311.239C656.991 304.821 660.253 294.133 660.253 275.991H656.063C656.063 293.831 652.813 303.099 647.713 308.307C642.583 313.544 635.165 315.149 625.354 316.487L625.92 320.639ZM660.253 275.991V53.8839H656.063V275.991H660.253ZM660.253 53.8839C660.253 35.7419 656.991 25.0535 650.706 18.6358C644.449 12.2471 635.607 10.5571 625.92 9.23638L625.354 13.388C635.165 14.7256 642.583 16.3305 647.713 21.5676C652.813 26.7757 656.063 36.0441 656.063 53.8839H660.253ZM625.637 13.4072H718.132V9.21717H625.637V13.4072ZM718.138 13.4072C782.343 13.2046 819.973 54.6463 826.231 100.702C832.49 146.767 807.392 197.682 745.274 216.475L746.487 220.485C810.606 201.087 836.915 148.211 830.383 100.138C823.849 52.0544 784.486 9.00785 718.125 9.21718L718.138 13.4072ZM746.03 220.569C790.598 217.363 817.332 240.385 842.384 264.794C867.264 289.036 890.789 315.116 928.465 315.116V310.926C892.848 310.926 870.624 286.46 845.308 261.793C820.163 237.293 792.251 213.044 745.73 216.39L746.03 220.569ZM928.465 315.116C955.204 315.116 975.027 302.79 985.446 283.414C995.824 264.113 996.719 238.12 986.363 210.92L982.448 212.411C992.477 238.753 991.43 263.438 981.756 281.429C972.122 299.345 953.781 310.926 928.465 310.926V315.116ZM986.37 210.938L965.577 154.775L961.648 156.229L982.441 212.393L986.37 210.938ZM963.613 153.407H884.252V157.597H963.613V153.407ZM882.273 154.815C878.024 167.046 875.454 176.848 874.411 184.747C873.369 192.635 873.827 198.794 875.806 203.628C879.851 213.504 889.77 216.824 902.089 219.007L902.821 214.882C890.425 212.685 882.789 209.621 879.684 202.04C878.089 198.145 877.573 192.806 878.565 185.295C879.555 177.795 882.026 168.295 886.231 156.189L882.273 154.815ZM902.455 214.85H826.129V219.04H902.455V214.85ZM826.599 218.986C839.193 216.086 848.582 212.416 857.878 201.168C867.008 190.121 875.999 171.822 888.351 140.01L884.445 138.494C872.082 170.334 863.296 188.035 854.648 198.499C846.167 208.762 837.779 212.112 825.658 214.903L826.599 218.986ZM888.347 140.02L941.254 5.75247L937.356 4.21639L884.449 138.484L888.347 140.02ZM939.305 7.07943H941.488V2.88943H939.305V7.07943ZM939.533 5.73703L997.212 155.581L1001.12 154.075L943.443 4.23183L939.533 5.73703ZM997.211 155.577C1014.16 199.884 1011.34 241.782 993.729 272.516C976.148 303.201 943.688 323.02 900.716 323.02V327.21C945.096 327.21 978.992 306.667 997.364 274.599C1015.71 242.579 1018.44 199.334 1001.12 154.08L997.211 155.577ZM885.547 153.853H961.874V149.663H885.547V153.853ZM963.836 151.023L926.542 51.4269L922.618 52.8962L959.912 152.492L963.836 151.023ZM922.629 51.3971L883.596 150.993L887.498 152.522L926.53 52.9259L922.629 51.3971ZM1189.68 243.592L1177.1 318.215L1181.23 318.911L1193.81 244.289L1189.68 243.592ZM1179.16 316.468H1014.37V320.658H1179.16V316.468ZM1016.47 318.563V314.594H1012.28V318.563H1016.47ZM1016.29 315.444L1149.07 16.1306L1145.24 14.4315L1012.46 313.744L1016.29 315.444ZM1147.16 13.186H1097.17V17.376H1147.16V13.186ZM1097.17 13.186C1063.15 13.186 1043.88 27.5935 1032.59 43.9855C1021.44 60.1673 1018.1 78.3787 1015.82 85.279L1019.8 86.5898C1022.3 79 1025.34 61.8848 1036.04 46.3623C1046.58 31.0502 1064.6 17.376 1097.17 17.376V13.186ZM1019.88 86.2827L1032.46 11.6604L1028.33 10.9639L1015.75 85.5862L1019.88 86.2827ZM1030.39 13.4072H1186.97V9.21717H1030.39V13.4072ZM1184.87 11.3122V15.281H1189.06V11.3122H1184.87ZM1185.06 14.4273L1051.49 313.74L1055.32 315.448L1188.88 16.1347L1185.06 14.4273ZM1053.41 316.689H1112.79V312.499H1053.41V316.689ZM1112.79 316.689C1146.7 316.689 1165.88 302.278 1177.09 285.884C1188.16 269.705 1191.46 251.487 1193.73 244.596L1189.75 243.285C1187.25 250.884 1184.26 267.993 1173.64 283.518C1163.16 298.828 1145.25 312.499 1112.79 312.499V316.689ZM1381.88 243.593L1369.34 318.216L1373.47 318.91L1386.01 244.288L1381.88 243.593ZM1371.4 316.468H1206.36V320.658H1371.4V316.468ZM1208.45 318.563V314.594H1204.26V318.563H1208.45ZM1208.27 315.443L1340.98 16.1302L1337.15 14.4319L1204.44 313.745L1208.27 315.443ZM1339.07 13.186H1289.3V17.376H1339.07V13.186ZM1289.3 13.186C1255.28 13.186 1236.01 27.5935 1224.72 43.9855C1213.57 60.1673 1210.23 78.3787 1207.95 85.279L1211.93 86.5898C1214.43 79 1217.47 61.8848 1228.17 46.3623C1238.71 31.0502 1256.73 17.376 1289.3 17.376V13.186ZM1212.01 86.2827L1224.59 11.6604L1220.46 10.9639L1207.88 85.5862L1212.01 86.2827ZM1222.52 13.4072H1379.1V9.21717H1222.52V13.4072ZM1377 11.3122V15.281H1381.19V11.3122H1377ZM1377.19 14.4271L1243.59 313.74L1247.41 315.448L1381.01 16.1349L1377.19 14.4271ZM1245.5 316.689H1304.92V312.499H1245.5V316.689ZM1304.92 316.689C1338.83 316.689 1358.01 302.278 1369.23 285.885C1380.31 269.71 1383.63 251.485 1385.93 244.605L1381.96 243.276C1379.41 250.886 1376.41 267.987 1365.78 283.517C1355.29 298.828 1337.38 312.499 1304.92 312.499V316.689ZM1458.46 316.468H1365.96V320.658H1458.46V316.468ZM1366.14 320.65C1384.04 319.105 1395.87 316.193 1405.61 304.838C1415.13 293.748 1422.49 274.756 1432.57 241.934L1428.56 240.705C1418.43 273.706 1411.28 291.801 1402.43 302.109C1393.81 312.152 1383.44 314.951 1365.78 316.476L1366.14 320.65ZM1432.56 241.941L1505.86 5.7926L1501.85 4.5506L1428.56 240.699L1432.56 241.941ZM1503.86 7.2666H1506.04V3.0766H1503.86V7.2666ZM1504.04 5.79852L1587.73 272.649L1591.73 271.395L1508.04 4.54468L1504.04 5.79852ZM1587.72 272.637C1593.61 291.813 1599.63 303.131 1608.82 309.974C1617.96 316.784 1629.91 318.892 1646.78 320.647L1647.22 316.479C1630.24 314.714 1619.42 312.647 1611.32 306.614C1603.26 300.615 1597.57 290.422 1591.73 271.407L1587.72 272.637ZM1647 316.468H1523.5V320.658H1647V316.468ZM1523.69 320.649C1538.26 319.297 1548.64 314.776 1553.92 305.974C1559.16 297.244 1558.95 284.997 1554.14 269.276L1550.13 270.5C1554.84 285.893 1554.63 296.655 1550.33 303.819C1546.07 310.911 1537.38 315.171 1523.31 316.477L1523.69 320.649ZM1554.15 269.289L1538.94 218.367L1534.92 219.566L1550.13 270.487L1554.15 269.289ZM1536.93 216.872H1441.11V221.062H1536.93V216.872ZM1439.1 218.368L1431.29 244.578L1435.31 245.774L1443.11 219.565L1439.1 218.368ZM1431.3 244.555C1425.96 261.75 1422.99 274.898 1422.02 284.992C1421.06 295.063 1422.08 302.343 1425.01 307.601C1427.99 312.947 1432.76 315.871 1438.49 317.619C1444.14 319.343 1450.95 319.99 1458.27 320.649L1458.65 316.476C1451.22 315.807 1444.86 315.185 1439.71 313.612C1434.63 312.063 1430.96 309.661 1428.67 305.562C1426.34 301.375 1425.27 295.092 1426.2 285.39C1427.12 275.713 1430 262.88 1435.3 245.797L1431.3 244.555ZM1442.4 217.504H1535.64V213.314H1442.4V217.504ZM1537.64 214.808L1491.69 61.5569L1487.68 62.7603L1533.63 216.011L1537.64 214.808ZM1487.68 61.541L1440.4 214.792L1444.4 216.027L1491.69 62.7763L1487.68 61.541Z" fill="black"/>
</svg>
